<svg width="165" height="75" xmlns="http://www.w3.org/2000/svg"><g fill="none"><path d="M41.253 52.843c-6.44 0-10.316 5.133-10.316 10.961 0 6.528 4.266 10.961 11.925 10.961a22.26 22.26 0 007.223-1.173l-.954-3.813c-2.028.53-4.115.802-6.212.813-3.917 0-6.698-1.872-6.787-5.043h15.012v-1.615c-.016-6.565-3.758-11.09-9.89-11.09zm-5.087 8.959c.388-3.216 2.347-4.869 5.087-4.869 2.957 0 4.527 1.828 4.83 4.869h-9.917zm29.748-8.959a8.957 8.957 0 00-7.223 3.74v-3.349h-5.179v21.184h5.303V62.631a5.12 5.12 0 014.963-5.046c2.651 0 3.815 1.566 3.815 4.176v12.657h5.306v-13.44c.019-4.871-2.2-8.135-6.985-8.135zm17.858 0a37.377 37.377 0 00-7.44.74l.433 3.916a47.998 47.998 0 016.53-.48c3.92 0 5.087 1.131 5.087 3.496v1.773h-6.359c-4.352 0-6.873 2.18-6.873 6.178 0 3.696 2.861 6.305 7.137 6.305 2.912 0 4.918-.953 6.308-2.695v2.349h5.086V60.629c.01-5.262-3.688-7.786-9.91-7.786zm4.61 13.7c0 2.654-1.787 4.45-4.614 4.45-2.177 0-3.309-.827-3.309-2.568 0-1.907 1.176-2.654 3.31-2.654h4.613v.772zm19.424-9.435c1.421 0 2.838.16 4.222.477l.868-3.814a15.45 15.45 0 00-5.525-.915c-7.048 0-11.703 4.786-11.703 10.96 0 6.176 4.655 10.962 11.703 10.962a17.622 17.622 0 005.525-.998l-.868-3.874a14.8 14.8 0 01-4.222.645c-4.613 0-6.832-2.784-6.832-6.744s2.22-6.699 6.832-6.699zm32.234 7.916a5.086 5.086 0 01-4.96 5.002c-2.654 0-3.786-1.566-3.786-4.175V53.234H119.91v-5.959h-5.31v21.051c0 4.656 2.827 6.436 6.702 6.436a15.04 15.04 0 003.046-.347l-.484-3.915c-.501.096-1.009.155-1.52.178-1.392 0-2.434-.483-2.434-2.701V56.803h6.075v9.874c0 4.872 2.225 8.088 6.994 8.088a8.861 8.861 0 007.192-3.737v3.39h5.223V53.234h-5.354v11.79zm17.82-3.222c-3.742-1.478-4.737-1.824-4.737-3.216 0-1.128.778-1.653 3.563-1.653 2.175.043 4.336.347 6.438.906l.922-3.864c-2.308-.785-5.404-1.132-7.445-1.132-5.526 0-8.584 1.958-8.584 5.918 0 3.565 1.872 4.697 7.528 6.991 3.23 1.303 4.05 1.665 4.05 2.927 0 1.173-.953 2.002-3.742 2.002-2.177 0-4.873-.613-7.442-1.525l-1.176 3.696c2.616 1.134 5.92 1.906 8.66 1.906 5.357 0 8.88-2.52 8.88-6.305.006-3.559-1.606-4.56-6.915-6.651z" fill="#515356"/><path fill="#FFC222" d="M58.618 37.703l-11.64-11.631L20.895 0v37.703H0l20.894 20.89 20.836-20.89z"/><path fill="#C88A12" d="M20.894 58.592V37.703h-2.362zm29.267-29.339l-8.43 8.45h2.606z"/></g></svg>