<?xml version="1.0" encoding="UTF-8" standalone="no"?>
<svg
   version="1.1"
   viewBox="0 0 991.15466 154.66667"
   xmlns:inkscape="http://www.inkscape.org/namespaces/inkscape"
   xmlns:sodipodi="http://sodipodi.sourceforge.net/DTD/sodipodi-0.dtd"
   xmlns="http://www.w3.org/2000/svg"
   xmlns:svg="http://www.w3.org/2000/svg">
  <defs
     id="defs6">
    <clipPath
       clipPathUnits="userSpaceOnUse"
       id="clipPath20">
      <path
         d="M 0,116 H 743.366 V 0 H 0 Z"
         id="path18" />
    </clipPath>
    <linearGradient
       x1="0"
       y1="0"
       x2="1"
       y2="0"
       gradientUnits="userSpaceOnUse"
       gradientTransform="matrix(36.175842,36.175842,36.175842,-36.175842,9.6122942,44.414459)"
       spreadMethod="pad"
       id="linearGradient54">
      <stop
         style="stop-opacity:1;stop-color:#ffb200"
         offset="0"
         id="stop50" />
      <stop
         style="stop-opacity:1;stop-color:#f80000"
         offset="1"
         id="stop52" />
    </linearGradient>
    <clipPath
       clipPathUnits="userSpaceOnUse"
       id="clipPath64">
      <path
         d="M 0,116 H 743.366 V 0 H 0 Z"
         id="path62" />
    </clipPath>
    <linearGradient
       x1="0"
       y1="0"
       x2="1"
       y2="0"
       gradientUnits="userSpaceOnUse"
       gradientTransform="matrix(63.03381,42.640514,42.640514,-63.03381,185.5611,20.001118)"
       spreadMethod="pad"
       id="linearGradient100">
      <stop
         style="stop-opacity:1;stop-color:#ffd400"
         offset="0"
         id="stop96" />
      <stop
         style="stop-opacity:1;stop-color:#ff2061"
         offset="1"
         id="stop98" />
    </linearGradient>
    <clipPath
       clipPathUnits="userSpaceOnUse"
       id="clipPath110">
      <path
         d="M 0,116 H 743.366 V 0 H 0 Z"
         id="path108" />
    </clipPath>
  </defs>
  <sodipodi:namedview
     id="namedview4"
     pagecolor="#ffffff"
     bordercolor="#000000"
     borderopacity="0.25"
     inkscape:showpageshadow="2"
     inkscape:pageopacity="0.0"
     inkscape:pagecheckerboard="0"
     inkscape:deskcolor="#d1d1d1" />
  <g
     id="g8"
     inkscape:groupmode="layer"
     inkscape:label="LOGO_EURATECHNOLOGIES_VECTO (2)"
     transform="matrix(1.3333333,0,0,-1.3333333,0,154.66667)">
    <g
       id="g10"
       transform="translate(93.8651,44.8041)">
      <path
         d="M 0,0 V -7.797 H -32.509 V 34.189 H -0.781 V 26.392 H -22.853 V 17.274 H -3.36 V 9.716 H -22.853 V 0 Z"
         style="fill:#000000;fill-opacity:1;fill-rule:nonzero;stroke:none"
         id="path12" />
    </g>
    <g
       id="g14">
      <g
         id="g16"
         clip-path="url(#clipPath20)">
        <g
           id="g22"
           transform="translate(101.8916,55.8401)">
          <path
             d="M 0,0 V 23.513 H 9.716 V 0.361 c 0,-7.977 3.48,-11.276 9.357,-11.276 5.939,0 9.358,3.299 9.358,11.276 v 23.152 h 9.596 V 0 c 0,-12.356 -7.076,-19.193 -19.012,-19.193 C 7.079,-19.193 0,-12.356 0,0"
             style="fill:#000000;fill-opacity:1;fill-rule:nonzero;stroke:none"
             id="path24" />
        </g>
        <g
           id="g26"
           transform="translate(167.0881,71.0737)">
          <path
             d="M 0,0 H -7.917 V -14.634 H 0 c 5.939,0 8.937,2.759 8.937,7.318 C 8.937,-2.698 5.939,0 0,0 M 9.118,-34.066 1.021,-22.37 H 0.54 -7.917 v -11.696 h -9.716 V 7.919 H 0.54 c 11.215,0 18.233,-5.819 18.233,-15.235 0,-6.297 -3.179,-10.915 -8.637,-13.254 l 9.416,-13.496 z"
             style="fill:#000000;fill-opacity:1;fill-rule:nonzero;stroke:none"
             id="path28" />
        </g>
        <g
           id="g30"
           transform="translate(213.9433,69.5957)">
          <path
             d="m 0,0 -13.496,-32.448 h -9.956 L -4.74,9.538 H 4.857 L 23.63,-32.448 H 13.435 Z"
             style="fill:#000000;fill-opacity:1;fill-rule:nonzero;stroke:none"
             id="path32" />
        </g>
        <g
           id="g34"
           transform="translate(702.7789,41.2883)">
          <path
             d="m 0,0 v -3.74 h -28.924 v 40.903 h 28.047 v -3.74 H -24.6 V 18.874 H -3.448 V 15.193 H -24.6 V 0 Z"
             style="fill:#000000;fill-opacity:1;fill-rule:nonzero;stroke:none"
             id="path36" />
        </g>
      </g>
    </g>
    <g
       id="g38">
      <g
         id="g40">
        <g
           id="g46">
          <g
             id="g48">
            <path
               d="M 1.508,79.691 V 65.23 h 14.46 V 50.77 h 14.46 V 36.31 h 14.46 v 43.381 z"
               style="fill:url(#linearGradient54);stroke:none"
               id="path56" />
          </g>
        </g>
      </g>
    </g>
    <g
       id="g58">
      <g
         id="g60"
         clip-path="url(#clipPath64)">
        <path
           d="m 1.507,36.31 h 14.46 V 50.77 H 1.507 Z"
           style="fill:#ffb200;fill-opacity:1;fill-rule:nonzero;stroke:none"
           id="path66" />
        <g
           id="g68"
           transform="translate(236.6817,70.9084)">
          <path
             d="m 0,0 h 12.529 v -34.146 h 6.599 3.085 V 0 H 35.602 V 7.89 H 0 Z"
             style="fill:#000000;fill-opacity:1;fill-rule:nonzero;stroke:none"
             id="path70" />
        </g>
        <g
           id="g72"
           transform="translate(290.0994,54.5331)">
          <path
             d="M 0,0 H 19.427 V 7.531 H 0 v 9.087 h 21.997 v 7.77 H -9.624 v -41.843 h 32.398 v 7.771 L 0,-9.684 Z"
             style="fill:#000000;fill-opacity:1;fill-rule:nonzero;stroke:none"
             id="path74" />
        </g>
        <g
           id="g76"
           transform="translate(344.0195,71.39)">
          <path
             d="m 0,0 c 4.184,0 7.711,-1.674 10.521,-4.902 l 6.216,5.739 c -3.945,4.782 -9.982,7.412 -17.215,7.412 -13.031,0 -22.715,-9.026 -22.715,-21.639 0,-12.613 9.684,-21.639 22.655,-21.639 7.293,0 13.33,2.63 17.275,7.472 l -6.216,5.739 C 7.711,-25.106 4.184,-26.78 0,-26.78 c -7.831,0 -13.39,5.5 -13.39,13.39 C -13.39,-5.5 -7.831,0 0,0"
             style="fill:#000000;fill-opacity:1;fill-rule:nonzero;stroke:none"
             id="path78" />
        </g>
        <g
           id="g80"
           transform="translate(398.9554,78.9215)">
          <path
             d="M 0,0 V -16.498 H -19.009 V 0 h -9.683 v -41.843 h 9.683 v 17.156 H 0 V -41.843 H 9.684 V 0 Z"
             style="fill:#000000;fill-opacity:1;fill-rule:nonzero;stroke:none"
             id="path82" />
        </g>
      </g>
    </g>
    <g
       id="g84">
      <g
         id="g86">
        <g
           id="g92">
          <g
             id="g94">
            <path
               d="m 211.199,39.262 c 0,-1.565 1.268,-2.834 2.834,-2.834 v 0 c 1.565,0 2.833,1.269 2.833,2.834 v 0 c 0,1.564 -1.268,2.833 -2.833,2.833 v 0 c -1.566,0 -2.834,-1.269 -2.834,-2.833"
               style="fill:url(#linearGradient100);stroke:none"
               id="path102" />
          </g>
        </g>
      </g>
    </g>
    <g
       id="g104">
      <g
         id="g106"
         clip-path="url(#clipPath110)">
        <g
           id="g112"
           transform="translate(459.584,78.9238)">
          <path
             d="m 0,0 v -41.848 h -4.762 l -27.133,37.494 0.042,0.064 -0.042,0.022 v -0.086 l 0.042,-37.494 h -4.182 V 0 h 6.563 L -4.183,-35.434 V 0 Z"
             style="fill:#000000;fill-opacity:1;fill-rule:nonzero;stroke:none"
             id="path114" />
        </g>
        <g
           id="g116"
           transform="translate(491.0891,79.639)">
          <path
             d="m 0,0 c -11.951,0 -21.639,-9.688 -21.639,-21.639 0,-11.951 9.688,-21.639 21.639,-21.639 11.951,0 21.639,9.688 21.639,21.639 C 21.639,-9.688 11.951,0 0,0 m 0,-4.283 c 9.57,0 17.356,-7.786 17.356,-17.356 0,-9.57 -7.786,-17.356 -17.356,-17.356 -9.57,0 -17.356,7.786 -17.356,17.356 0,9.57 7.786,17.356 17.356,17.356"
             style="fill:#000000;fill-opacity:1;fill-rule:nonzero;stroke:none"
             id="path118" />
        </g>
        <g
           id="g120"
           transform="translate(574.9954,79.639)">
          <path
             d="m 0,0 c -11.951,0 -21.639,-9.688 -21.639,-21.639 0,-11.951 9.688,-21.639 21.639,-21.639 11.951,0 21.639,9.688 21.639,21.639 C 21.639,-9.688 11.951,0 0,0 m 0,-4.283 c 9.57,0 17.356,-7.786 17.356,-17.356 0,-9.57 -7.786,-17.356 -17.356,-17.356 -9.57,0 -17.356,7.786 -17.356,17.356 0,9.57 7.786,17.356 17.356,17.356"
             style="fill:#000000;fill-opacity:1;fill-rule:nonzero;stroke:none"
             id="path122" />
        </g>
        <g
           id="g124"
           transform="translate(549.2241,36.4122)">
          <path
             d="m 0,0 h -28.202 l -0.002,41.13 h 4.09 L -24.113,4.09 H 0 Z"
             style="fill:#000000;fill-opacity:1;fill-rule:nonzero;stroke:none"
             id="path126" />
        </g>
        <g
           id="g128"
           transform="translate(655.3755,37.4957)">
          <path
             d="m 0,0 -0.001,41.009 h 4.09 L 4.09,0 Z"
             style="fill:#000000;fill-opacity:1;fill-rule:nonzero;stroke:none"
             id="path130" />
        </g>
        <g
           id="g132"
           transform="translate(633.4224,37.3468)">
          <path
             d="m 0,0 h -13.368 c -8.097,0 -14.686,6.588 -14.686,14.686 v 9.661 c 0,9.351 7.609,16.96 16.96,16.96 H 6.074 v -4.09 h -17.168 c -7.096,0 -12.87,-5.774 -12.87,-12.87 v -9.661 c 0,-5.843 4.754,-10.596 10.596,-10.596 L 0,4.09 c 1.714,0 3.108,1.394 3.108,3.108 v 8.476 H -7.44 v 4.09 H 7.198 V 7.198 C 7.198,3.229 3.969,0 0,0"
             style="fill:#000000;fill-opacity:1;fill-rule:nonzero;stroke:none"
             id="path134" />
        </g>
        <g
           id="g136"
           transform="translate(710.7349,42.7679)">
          <path
             d="m 0,0 1.77,3.077 c 3.076,-2.615 8.537,-4.847 14.462,-4.847 8.462,0 11.847,3.001 11.847,7.54 0,11.693 -26.618,3.077 -26.618,18.847 0,6.078 5.078,11.002 15.231,11.002 5.078,0 10.617,-1.539 13.771,-3.924 l -1.769,-3.077 c -3.385,2.461 -7.77,3.616 -12.077,3.616 -7.848,0 -11.31,-3.231 -11.31,-7.54 0,-12.077 26.618,-3.539 26.618,-18.847 0,-6.539 -5.615,-11.002 -15.847,-11.002 C 9.462,-5.155 3.154,-2.923 0,0"
             style="fill:#000000;fill-opacity:1;fill-rule:nonzero;stroke:none"
             id="path138" />
        </g>
      </g>
    </g>
  </g>
</svg>
